# xmcd
#
# Track frame offsets:
#	150
#	20222
#	40062
#	64233
#	88262
#	107662
#	132761
#	154282
#	176014
#	197679
#	221488
#	244166
#
# Disc length: 3560 seconds
#
# Revision: 2045605824
# Processed by: cddbd v1.5.2PL0 Copyright (c) Steve Scherf et al.
# Submitted via: EZCDAudioConverter 8.0.2.1
#
DISCID=ac0de60c
DTITLE=Quang Lê - 7000 Đêm Góp Lại
DYEAR=2005
DGENRE=Miscellaneous
TTITLE0=Quang Lê - Xin em đừng khóc vu quy
TTITLE1=Quang Lê - 7000 Đêm Góp Lại
TTITLE2=Quang Lê - Hận Tha La
TTITLE3=Quang Lê, Như Quỳnh - Đêm bơ vơ
TTITLE4=Quang Lê - Tình em biển rộng sông dài
TTITLE5=Quang Lê - Sao em nỡ vô tình
TTITLE6=Quang Lê, Hương Thủy - Tình nhỏ mau quên
TTITLE7=Quang Lê - Vùng quê tương lai
TTITLE8=Quang Lê - Xuân này con về mẹ ở đâu
TTITLE9=Quang Lê - Thành phố sau lưng
TTITLE10=Quang Lê - Hãy về đây bên anh
TTITLE11=Quang Lê - Xin đừng trách đa đa
EXTD=
EXTT0=
EXTT1=
EXTT2=
EXTT3=
EXTT4=
EXTT5=
EXTT6=
EXTT7=
EXTT8=
EXTT9=
EXTT10=
EXTT11=
PLAYORDER=
